<svg xmlns="http://www.w3.org/2000/svg" viewBox="0 0 1200 800" width="600" height="400">
  <rect width="1200" height="800" fill="#f2f3f5"/>
  <rect x="40" y="40" width="260" height="520" fill="#ffffff" rx="16"/>
  <text x="170" y="110" text-anchor="middle" font-size="18" fill="#1c1c22" font-family="sans-serif">首页</text>
  <rect x="60" y="140" width="220" height="90" fill="#f2f3f5" rx="8"/>
  <rect x="60" y="240" width="220" height="90" fill="#f2f3f5" rx="8"/>
  <rect x="60" y="340" width="220" height="90" fill="#f2f3f5" rx="8"/>
  <circle cx="260" cy="520" r="28" fill="#3a7bd5"/>
  <text x="260" y="527" text-anchor="middle" font-size="24" fill="#ffffff" font-family="sans-serif">+</text>
  <rect x="340" y="40" width="260" height="520" fill="#ffffff" rx="16"/>
  <text x="470" y="110" text-anchor="middle" font-size="18" fill="#1c1c22" font-family="sans-serif">详情页</text>
  <rect x="360" y="140" width="220" height="180" fill="#f2f3f5" rx="8"/>
  <rect x="360" y="340" width="220" height="44" fill="#3a7bd5" rx="8"/>
  <text x="470" y="368" text-anchor="middle" font-size="14" fill="#ffffff" font-family="sans-serif">联系发布者</text>
  <rect x="640" y="40" width="260" height="520" fill="#ffffff" rx="16"/>
  <text x="770" y="110" text-anchor="middle" font-size="18" fill="#1c1c22" font-family="sans-serif">发布页</text>
  <rect x="660" y="140" width="220" height="40" fill="#f2f3f5" rx="8"/>
  <rect x="660" y="190" width="220" height="140" fill="#f2f3f5" rx="8"/>
  <rect x="660" y="340" width="220" height="44" fill="#3a7bd5" rx="8"/>
  <text x="770" y="368" text-anchor="middle" font-size="14" fill="#ffffff" font-family="sans-serif">发布</text>
  <rect x="940" y="40" width="220" height="520" fill="#ffffff" rx="16"/>
  <text x="1050" y="110" text-anchor="middle" font-size="18" fill="#1c1c22" font-family="sans-serif">我的</text>
  <rect x="960" y="140" width="180" height="60" fill="#f2f3f5" rx="8"/>
  <rect x="960" y="210" width="180" height="60" fill="#f2f3f5" rx="8"/>
  <rect x="960" y="280" width="180" height="60" fill="#f2f3f5" rx="8"/>
  <text x="600" y="700" text-anchor="middle" font-size="16" fill="#90939c" font-family="sans-serif">占位示例: 关键界面预览(实际替换为 Figma 导出截图)</text>
</svg>
